<?xml version="1.0" encoding="utf-8"?>
<!-- Generator: Adobe Illustrator 23.1.1, SVG Export Plug-In . SVG Version: 6.00 Build 0)  -->
<svg version="1.1" id="Layer_1" xmlns="http://www.w3.org/2000/svg" xmlns:xlink="http://www.w3.org/1999/xlink" x="0px" y="0px"
	 viewBox="0 0 40 40" style="enable-background:new 0 0 40 40;" xml:space="preserve">
<style type="text/css">
	.st0{display:none;}
	.st1{display:inline;}
	.st2{fill:#FFFFFF;stroke:#000000;stroke-width:2;stroke-miterlimit:10;}
	.st3{display:inline;fill:none;stroke:#000000;stroke-width:0.5;stroke-linecap:round;stroke-miterlimit:10;}
	.st4{display:inline;fill:none;stroke:#000000;stroke-width:0.5;stroke-miterlimit:10;}
	.st5{display:inline;fill:none;stroke:#000000;stroke-width:3;stroke-linecap:round;stroke-linejoin:round;stroke-miterlimit:10;}
	.st6{display:inline;stroke:#000000;stroke-miterlimit:10;}
</style>
<g id="Banquet" class="st0">
	<circle class="st1" cx="20" cy="20" r="8.71"/>
	<circle class="st1" cx="20" cy="5.64" r="4.14"/>
	<circle class="st1" cx="9.84" cy="9.84" r="4.14"/>
	<circle class="st1" cx="5.64" cy="20" r="4.14"/>
	<circle class="st1" cx="9.84" cy="30.16" r="4.14"/>
	<circle class="st1" cx="20" cy="34.36" r="4.14"/>
	<circle class="st1" cx="30.16" cy="30.16" r="4.14"/>
	<circle class="st1" cx="34.36" cy="20" r="4.14"/>
	<circle class="st1" cx="30.16" cy="9.84" r="4.14"/>
</g>
<g id="Theatre" class="st0">
	<circle class="st1" cx="4.78" cy="13.05" r="3.28"/>
	<circle class="st1" cx="12.39" cy="13.19" r="3.28"/>
	<circle class="st1" cx="20" cy="13.16" r="3.28"/>
	<circle class="st1" cx="27.61" cy="13.27" r="3.28"/>
	<circle class="st1" cx="8.53" cy="19.93" r="3.28"/>
	<circle class="st1" cx="16.14" cy="20.08" r="3.28"/>
	<circle class="st1" cx="23.75" cy="20.04" r="3.28"/>
	<circle class="st1" cx="31.36" cy="20.15" r="3.28"/>
	<circle class="st1" cx="35.22" cy="13.27" r="3.28"/>
	<circle class="st1" cx="4.78" cy="26.73" r="3.28"/>
	<circle class="st1" cx="12.39" cy="26.87" r="3.28"/>
	<circle class="st1" cx="20" cy="26.83" r="3.28"/>
	<circle class="st1" cx="27.61" cy="26.94" r="3.28"/>
	<circle class="st1" cx="35.22" cy="26.95" r="3.28"/>
</g>
<g id="Classroom">
	<g>
		<circle cx="8.83" cy="4.81" r="3.31"/>
		<circle cx="20" cy="4.81" r="3.31"/>
		<circle cx="31.17" cy="4.81" r="3.31"/>
	</g>
	<g>
		<circle cx="8.83" cy="20" r="3.31"/>
		<circle cx="20" cy="20" r="3.31"/>
		<circle cx="31.17" cy="20" r="3.31"/>
	</g>
	<g>
		<circle cx="8.83" cy="35.19" r="3.31"/>
		<circle cx="20" cy="35.19" r="3.31"/>
		<circle cx="31.17" cy="35.19" r="3.31"/>
	</g>
	<line class="st2" x1="4.11" y1="12.41" x2="35.89" y2="12.41"/>
	<line class="st2" x1="4.11" y1="27.59" x2="35.89" y2="27.59"/>
</g>
<g id="Boardroom" class="st0">
	<circle class="st1" cx="20" cy="5.37" r="3.87"/>
	<g class="st1">
		<circle cx="33.73" cy="15.68" r="3.87"/>
		<circle cx="33.73" cy="24.88" r="3.87"/>
		<circle cx="33.73" cy="34.08" r="3.87"/>
	</g>
	<g class="st1">
		<circle cx="6.27" cy="15.26" r="3.87"/>
		<circle cx="6.27" cy="24.55" r="3.87"/>
		<circle cx="6.27" cy="33.83" r="3.87"/>
	</g>
	<path class="st1" d="M27.56,38.5H12.44c-0.67,0-1.21-0.54-1.21-1.21V11.55c0-0.67,0.54-1.21,1.21-1.21h15.12
		c0.67,0,1.21,0.54,1.21,1.21v25.74C28.77,37.96,28.23,38.5,27.56,38.5z"/>
</g>
<g id="Reception" class="st0">
	<polyline class="st3" points="12.39,38.5 17.74,38.5 20,37.01 20,17.18 8.45,1.5 	"/>
	<polyline class="st3" points="31.55,1.5 20,17.18 20,37.01 22.26,38.5 27.61,38.5 	"/>
	<line class="st4" x1="27.61" y1="38.5" x2="12.39" y2="38.5"/>
	<polygon class="st1" points="9,2 31,2 20,17.15 	"/>
	<g class="st1">
		<polygon points="18.88,38.13 20,37.42 21.11,38.13 		"/>
		<path d="M20,37.71l0.27,0.17h-0.54L20,37.71 M20,37.12l-0.27,0.17l-0.27,0.17l-1.44,0.92h1.71h0.54h1.7l-1.43-0.92l-0.27-0.17
			L20,37.12L20,37.12z"/>
	</g>
</g>
<g id="u-shape" class="st0">
	<polyline class="st5" points="10.67,4 10.67,27.2 29.29,27.2 29.29,4 	"/>
	<g class="st1">
		<circle cx="4.37" cy="7.25" r="2.87"/>
		<circle cx="4.37" cy="14.13" r="2.87"/>
		<circle cx="4.37" cy="21.01" r="2.87"/>
	</g>
	<g class="st1">
		<circle cx="35.63" cy="7.25" r="2.87"/>
		<circle cx="35.63" cy="14.13" r="2.87"/>
		<circle cx="35.63" cy="21.01" r="2.87"/>
	</g>
	<g class="st1">
		<circle cx="13.1" cy="33.43" r="2.87"/>
		<circle cx="19.98" cy="33.43" r="2.87"/>
		<circle cx="26.86" cy="33.43" r="2.87"/>
	</g>
</g>
<g id="Hollow" class="st0">
	<rect x="11.88" y="10" class="st5" width="16.04" height="20"/>
	<g class="st1">
		<circle cx="5.5" cy="13.64" r="2.65"/>
		<circle cx="5.61" cy="19.79" r="2.65"/>
		<circle cx="5.61" cy="26.36" r="2.65"/>
	</g>
	<g class="st1">
		<circle cx="34.39" cy="13.64" r="2.65"/>
		<circle cx="34.5" cy="19.79" r="2.65"/>
		<circle cx="34.5" cy="26.36" r="2.65"/>
	</g>
	<g class="st1">
		<circle cx="13.73" cy="35.85" r="2.65"/>
		<circle cx="19.88" cy="35.75" r="2.65"/>
		<circle cx="26.44" cy="35.75" r="2.65"/>
	</g>
	<g class="st1">
		<circle cx="13.73" cy="4.25" r="2.65"/>
		<circle cx="19.88" cy="4.15" r="2.65"/>
		<circle cx="26.44" cy="4.15" r="2.65"/>
	</g>
</g>
<g id="Cabaret" class="st0">
	<circle class="st1" cx="18.93" cy="5.23" r="3.73"/>
	<circle class="st1" cx="28.35" cy="9.73" r="3.73"/>
	<circle class="st1" cx="29.87" cy="20.15" r="3.73"/>
	<circle class="st1" cx="28.35" cy="30.4" r="3.73"/>
	<circle class="st1" cx="18.93" cy="34.77" r="3.73"/>
	<path class="st1" d="M21.79,28.45H7.62c-0.68,0-1.22-0.55-1.22-1.22V13.06c0-0.68,0.55-1.22,1.22-1.22h14.17
		c0.68,0,1.22,0.55,1.22,1.22v14.17C23.02,27.91,22.47,28.45,21.79,28.45z"/>
</g>
<g id="buffet" class="st0">
	<g id="Buffet" class="st1">
		<path d="M19.76,28.63c-4.81,0-8.71-3.9-8.71-8.71s3.9-8.71,8.71-8.71"/>
		<path d="M19.76,9.69c-2.28,0-4.14-1.85-4.14-4.14s1.85-4.14,4.14-4.14"/>
		<circle cx="9.6" cy="9.76" r="4.14"/>
		<circle cx="5.4" cy="19.92" r="4.14"/>
		<circle cx="9.6" cy="30.08" r="4.14"/>
		<path d="M19.76,38.42c-2.28,0-4.14-1.85-4.14-4.14c0-2.28,1.85-4.14,4.14-4.14"/>
	</g>
	<line class="st4" x1="19.74" y1="1" x2="19.74" y2="39"/>
	<path class="st6" d="M35.23,38.5h-8.99c-0.56,0-1.01-0.45-1.01-1.01V2.51c0-0.56,0.45-1.01,1.01-1.01h8.99
		c0.56,0,1.01,0.45,1.01,1.01v34.99C36.24,38.05,35.79,38.5,35.23,38.5z"/>
</g>
<g id="dance" class="st0">
	<path class="st1" d="M24.28,2.02c0-0.03,0.07-0.07-0.05-0.12c-0.09-0.03-0.68,0.31-0.95,0.53c-0.01-0.07,0-0.13,0.04-0.19
		c0.15-0.21,0.41-0.51,0.32-0.69c-0.09-0.19-0.24,0.08-0.69,0.57c-0.28,0.31-0.28,1.04-0.28,1.04S22.6,3.65,22.15,4.1
		c0,0,0.81,0.66,1.14,0.37c0.33-0.3,0.72-0.51,0.99-0.87C24.5,3.31,24.27,2.04,24.28,2.02z"/>
	<polygon class="st1" points="22.18,3.78 22.51,3.13 23.6,4.39 22.82,5.25 	"/>
	<path class="st1" d="M14.7,9.68c-0.04-0.51,1.57-0.83,1.92-1.03c0.64-0.36,2.67-1.24,2.86-1.7l2.79-3.59c0,0,1.06,1.62,1.18,1.87
		c-1.04,1.67-1.77,2.7-2.46,3.43c-1,1.05-2.84,2.49-3.58,2.9C16.65,11.99,14.7,9.68,14.7,9.68z"/>
	<path class="st1" d="M26.35,11.69c-0.07-0.65-0.29-1.04-0.47-1.51c-0.18-0.47-0.51-2.64-0.51-2.96c0-0.32-0.55-3.09-0.85-3.56
		c-0.3-0.47-0.77,0-0.77,0s0.03,3.18,0.27,3.88c0,0,0.8,3.99,0,4.26C23.39,12.02,26.35,11.69,26.35,11.69z"/>
	<path class="st1" d="M19.95,17.85c-0.14,1.24-0.71,3.93-1.25,5.01c-0.54,1.08-5.08,6.62-5.37,7.32c-0.29,0.7-4.26,6.27-4.68,7.26
		c0,0-2.18-0.74-2.67-2.6c1.57-1.9,3.23-5.91,4.76-6.57c1.86-2.6,5.48-7.31,5.98-8.08c0.51-0.77,0.57-3.16,0.57-3.16L19.95,17.85z"
		/>
	<path class="st1" d="M13.69,9.26c0.31,0.03,1.38-0.34,1.45-0.54c0.07-0.2-0.93-1.29-0.93-1.29L13.6,8.14L13.69,9.26z"/>
	<path class="st1" d="M16.4,9.42c-0.73-1.14-0.12-1.57-0.36-1.7c-0.82-0.41-2.93-0.69-2.93-0.69c-0.03,0.47,1.04,2.06,0.97,3.13
		c-0.05,0.7-0.19,1.58-0.19,1.58s1.57,0.51,2.94,0.07c0.79-0.25,0.73-2.16,0.7-2.25C17.49,9.41,16.51,9.6,16.4,9.42z"/>
	<path class="st1" d="M16.25,8.35l-1.82,5.07L13.96,11c0,0,0.06-0.77,0.02-1.6c-0.02-0.44-0.71-1.44-0.71-1.44L16.25,8.35z"/>
	<g class="st1">
		<path d="M16.02,5.32c0.77,1.11,1.11,2.69,0.62,3.22c-0.45,0.48-1.93,0.52-2.97-0.32c-1.04-0.84-1.38-2.25-0.49-3.1
			C14.16,4.18,15.37,4.38,16.02,5.32z"/>
		<path d="M14.47,5.13c0.67-0.06,1-0.4,1.34-0.02c0.36,0.4,0.34,0.43,0.34,0.43s-0.27-0.86-1.07-1.11
			c-0.57-0.18-1.77-0.09-1.98,0.58C12.86,5.83,14.05,5.17,14.47,5.13z"/>
		<path d="M14.6,5.09c0.19,0.27-0.81,1.07-0.94,1.47c-0.13,0.4,0.06,0.57,0.12,0.68c0.06,0.11-0.27,0.12-0.27,0.31
			c0.01,0.34,0.54,0.83,0.68,0.76c0.16-0.08-0.5,0.97-0.5,0.97s-0.55-0.31-1.34-1.66C11.57,6.27,12.65,5,13.12,4.74
			C13.8,4.37,14.6,5.09,14.6,5.09z"/>
	</g>
	<path class="st1" d="M16.88,9.16c-0.08,0.02-0.39,0.17-0.39,0.17s0.02-0.05,0.12,0.17c0.02,0.04,0.11,0.32,0.01,0.44
		c-0.13,0.07-2.61-0.04-2.61-0.04c-0.1,0.77,3.04,6.77,3.04,6.77s2.46-2.66,2.1-4.31C18.63,9.96,16.96,9.14,16.88,9.16z"/>
	<polygon class="st1" points="13.94,9.5 16.55,9.28 16.84,10.79 13.85,10.26 	"/>
	<path class="st1" d="M16.4,9.18c0.41-0.12,1.23-0.02,1.23-0.02s1.16,0.87,1.56,1.68c1.62,2.73,1.9,4.37,1.96,4.53
		c0.62,1.61,0.75,2.53,0.97,2.97c-0.09,0.26-0.47,0.46-0.48,0.6c0,0-2.02-6.27-2.11-6.48C18.15,9.38,16.4,9.18,16.4,9.18z"/>
	<path class="st1" d="M15.01,15.01c0.38,0.48,1.02,1.53,0.98,2.69c-0.03,0.97-5.37,9.99-5.37,9.99l7.27,6.24
		c0,0,2.64-16.26,2.64-17.37c-0.01-1.97-0.35-2.71-0.6-2.99c-1.02-1.1-3.23-2.65-3.23-2.65s-2.76-1.21-2.77-1.01
		c-0.08,0.85-0.2,1.74-0.2,1.74S13.24,12.76,15.01,15.01z"/>
	<path class="st1" d="M29.11,31.57c1.11,0.54,4.09,1.73,4.49,2.34c0.59,0.9,0.65,2.4,0.65,2.4s0.84-0.4,0.91-0.72
		c0.07-0.31-0.11-2.34-0.11-2.34s-0.56-0.08-0.98-0.53c-0.42-0.45-3.39-3.23-4.15-3C29.17,29.94,29.11,31.57,29.11,31.57z"/>
	<path class="st1" d="M34.62,33.06c0.34-0.16,0.75,0.27,0.93,0.55c0.18,0.28,0.82,0.9,0.82,0.9l-0.13,0.21c0,0-0.77-0.71-0.88-0.4
		c-0.11,0.31,0.06,1.98-0.07,2.35c-0.14,0.37-1.39,0.53-1.39,0.53s-0.52-0.55-0.15-0.74c0.77-0.39,1.26-0.83,1.09-1.56
		C34.62,33.97,34.28,33.22,34.62,33.06z"/>
	<g class="st1">
		<path d="M16.51,30.38c0.47,1.21,2.27,4.49,2.13,5.25c-0.19,1.11-1.58,2.11-1.58,2.11s0.94,0.29,1.22,0.11
			c0.28-0.19,1.84-1.7,1.84-1.7s-0.49-0.58-0.49-1.24c0-0.65-0.42-4.99-1.17-5.37C17.73,29.16,16.51,30.38,16.51,30.38z"/>
		<path d="M20.04,35.95c0.28,0.28,0.16,0.98-0.05,1.26c-0.21,0.28-0.11,1.08-0.11,1.08h-0.32c0,0,0.15-1.09-0.2-1.09
			c-0.35,0-0.91,1.2-1.33,1.2c-0.42,0-1.68,0-1.68,0s-0.24-0.52,0.18-0.67c0.42-0.14,1.57-0.13,2.07-0.73
			C19.24,36.26,19.76,35.67,20.04,35.95z"/>
	</g>
	<path class="st1" d="M27.08,12.96c0.28-0.25,0.81-0.35,1.78-0.59c0.78-0.2-0.24-1.13-0.24-1.13c-1.26,0.08-1.6,0.08-2.75,0.49
		c-0.24-0.15-2.3-0.05-2.5,0.14c-0.14,0.01-1.56,0.92-1.44,1.14c0.12,0.22,2.54,2.25,3.19,2.14c1.03-0.17,1.83-0.54,1.81-0.99
		C26.91,13.75,26.63,13.35,27.08,12.96z"/>
	<g class="st1">
		<g>
			<path d="M6.47,34.42c-0.31,0.74-0.65,0.95-0.95,1.22c-0.57,0.52-1.06,0.85-1.37,1.17c-0.41,0.43-0.66,0.94-0.43,1.39
				c0.23,0.45,1.43,0.39,2.16-0.2c0.59-0.47,0.35-0.58,0.75-1.09c0.4-0.51,0.85-0.56,0.86-1.03c0.01-0.47,0.07-1.08,0.07-1.08
				L6.47,34.42z"/>
		</g>
		<path d="M5.95,37.38c-0.29,0.48-1.01,0.92-1.47,0.74c-0.3-0.12,0.05-0.2,0.35-0.26C5.13,37.8,5.95,37.38,5.95,37.38z"/>
	</g>
	<path class="st1" d="M20.35,13.79c-0.53-0.53-2.15-2.13-2.95-2.61c-0.8-0.47-1.78-0.86-2.64-1.13c-0.69-0.21-0.9-0.36-0.9-0.36
		l-0.09,0.54l2.07,0.97l0.65-0.3l0.1,0.64c0,0,2.16,0.9,3.66,2.44C20.51,14.26,20.35,13.79,20.35,13.79z"/>
	<g class="st1">
		<g>
			<g>
				<g>
					<path d="M27.77,12.72c-0.3-0.05-2.54,0.06-2.7-0.24c-0.13-0.25,0.6-0.6,0.67-0.84c0.42-0.01,1.29-0.26,1.35-0.29
						C27.1,11.34,27.95,12.59,27.77,12.72z"/>
				</g>
			</g>
			<g>
				<g>
					<g>
						<path d="M28.25,10.02c-0.96,0.27-1.69,1.22-1.62,1.72c0.08,0.56,0.71,1.2,1.99,1.25c1.05,0.04,2.04-0.38,1.86-1.74
							C30.31,9.97,29.26,9.74,28.25,10.02z"/>
					</g>
				</g>
				<path d="M29.93,11.09c-0.47-1-0.7-1.09-1.35-1.06c-0.3,0.01-0.86,0.24-1.12,0.41c-0.23,0.16,0.59-0.39,0.59-0.39
					s2.05-0.78,2.59,0.2c0.26,0.48,0.2,0.78-0.03,0.72C30.55,10.97,29.93,11.09,29.93,11.09z"/>
				<path d="M29.94,10.5c-0.47,0.4-0.15,1.86-0.95,2.18c-0.58,0.23-1.04,0.22-1.42,0.09c-0.5-0.16,0.9,0.26,0.9,0.26
					s1.21,0.36,2.1-0.47c0.99-0.93,0.21-2.11,0.12-2.1C30.63,10.46,29.94,10.5,29.94,10.5z"/>
			</g>
		</g>
		<path d="M29.96,10.52c-0.06,0.13,0,0.56-0.13,0.92c-0.13,0.37-0.46,1.11-1.32,1.13c0.21,0.15,1.08-0.27,1.29-0.61
			c0.44-0.71,0.21-1.22,0.19-1.33C29.96,10.52,29.96,10.52,29.96,10.52z"/>
		<path d="M30.12,10.46c0.29,0.09,0.63,0.44,0.37,1.14c-0.39,1.03-1.65,1.09-2.02,1.01c0,0,0.74-0.11,1.04-0.37
			c0.65-0.55,0.44-1.52,0.43-1.7C29.92,10.39,30.12,10.46,30.12,10.46z"/>
		<path d="M29.91,10.46c-0.19,0-0.16,0.31-0.24,0.73c-0.23,1.14-0.83,1.18-0.87,1.2c0,0,0.31-0.02,0.73-0.39
			C29.95,11.63,29.91,10.46,29.91,10.46z"/>
	</g>
	<path class="st1" d="M24.65,13.28c0.36-0.05,1.81-0.57,2.37-0.15c-0.09,0.09-0.12,0.23-0.12,0.23s-1.12-0.55-1.99,0.52
		C24.49,14.41,24.65,13.28,24.65,13.28z"/>
	<path class="st1" d="M29.04,28.4c-0.67-2.81-6-6.67-5.27-8.12c0.65-1.3-0.39-2.15-0.6-2.92c0.39-1.15,2.73-2.41,2.73-2.41
		s-1.69-0.28-0.52-1.47l0.67-0.4c0,0-2.26-0.81-3.45-0.13c0.3-0.89,1.82-1.32,1.82-1.32c-0.89,0.01-1.55,0.17-1.98,0.34
		c-0.42,0.16-0.91,0.48-0.99,0.95c-0.03,0.17-0.71,0.95-1.52,2.92c-1.38,3.2-0.25,7.28-0.26,9.74
		C19.87,25.61,29.39,29.88,29.04,28.4z"/>
	<path class="st1" d="M22.58,11.95c0.7-0.29,2.42-0.6,3.5-0.57c0.08,0.03,0.01,0.06,0.01,0.06s-1.41-0.03-2.99,0.7
		C22.25,12.53,22.58,11.95,22.58,11.95z"/>
	<path class="st1" d="M23.77,4.14c-0.13-0.15-0.41-0.67-0.45-0.83c-0.05-0.16-0.04-0.96-0.1-1.19c-0.07-0.28,0.01-0.55,0.14-0.25
		c0.12,0.28,0.19,0.53,0.19,0.53s0.08-0.1,0.06-0.17c-0.03-0.09-0.06-0.22,0.25-0.24c0.2-0.01,0.46-0.1,0.68,0.32
		c0.22,0.42,0.07,1.04,0.03,1.55C24.56,4.04,23.77,4.14,23.77,4.14z"/>
	<path class="st1" d="M24.68,3.24C24.76,3.14,24.7,3,24.7,3c0.07-0.07,0.06-0.2,0.01-0.42c0.06-0.14,0.06-0.37-0.1-0.51
		c0.02-0.04-0.02-0.21-0.23-0.25c-0.25-0.04-0.65,0.35-0.64,0.72c0,0.13,0.39-0.16,0.52-0.23c-0.12,0.15-0.54,0.35-0.47,0.53
		c0.04,0.1,0.37-0.03,0.48-0.11c-0.11,0.12-0.39,0.33-0.38,0.4c0.02,0.15,0.53-0.06,0.53-0.06s-0.42,0.26-0.4,0.3
		C24.06,3.53,24.6,3.33,24.68,3.24z"/>
	<path class="st1" d="M19.79,20.58c-0.12,0.59-4.11,6.24-4.11,7.5c0,1.26-0.63,4.42-1.42,7.11c-0.26,0.88,1.9,1.26,2.69,1.26
		c0,0,1.74-0.71,2.53,0.55c0.79,1.26,1.38,0.87,1.9,0.79c1.56-0.24,0.47-1.11,1.9-0.47c1.42,0.63,1.11-0.63,2.53-0.79
		c1.42-0.16,2.53,0.79,3.63-0.32c1.11-1.11,2.24-1.52,2.86-2.43c0.77-1.13,1.36-1.66,1.36-1.66s-2.19-3.85-5.33-5.98
		C25.92,24.51,19.79,20.58,19.79,20.58z"/>
	<path class="st1" d="M16.98,9.38c1.01,0.59,2.72,3.47,2.96,3.85l0.03-0.18c0,0-1.36-2.64-1.39-2.76c-0.03-0.12-0.44-0.3-0.44-0.3
		l0.21-0.21l-1.57-0.71L16.98,9.38z"/>
	<path class="st1" d="M16.14,8.94l1.01-0.04l-0.09,0.86c0,0-0.39,0.04-0.43-0.03c-0.1-0.2-0.24-0.29-0.24-0.29L16.14,8.94z"/>
	<path class="st1" d="M23.37,16.73c-0.07,0.45-0.38,0.35-0.02,1.01c0.36,0.65,0.95,1.18,0.4,2.71c-0.36,0.99,2.84,3.1,3.51,4.96
		c1.78,1.07,3.4,2.11,6.4,6.73c-0.59,0.47-1.01,1.18-1.18,1.42c-0.18,0.24-4.78-5.98-6.08-7.29c-1.97-1.98-3.91-3.73-3.79-6.16
		c0.12-2.43-0.26-3.38-0.2-3.56C22.46,16.37,23.37,16.73,23.37,16.73z"/>
	<path class="st1" d="M22.64,23.66c1.74,2.13,8.29,11.38,8.29,11.38s-1.42,0.63-1.5,1.18C28.88,34.64,22.64,23.66,22.64,23.66z"/>
	<path class="st1" d="M21.49,26.15c-0.2,2.29,0.83,11.18,0.83,11.18s0-0.71,0.95,0c-0.32-1.3-0.91-4.19-1.18-6.12
		C21.81,29.27,21.49,26.15,21.49,26.15z"/>
	<g class="st1">
		<path d="M21.84,15.74c0,0,0.68,0.53,1.5,0.55c0.35,0.16,1.33,0.12,1.43,0.11c0.1-0.02,0.39-0.24,0.42-0.28
			c0.04-0.04,0.13-0.32,0.13-0.37c0-0.01,0-0.46-0.03-0.44c-0.04,0.03-0.3,0.14-0.32,0.17c-0.04,0.05-0.63,0.14-0.58,0.03
			c0.03-0.07,0.13-0.04,0.23-0.1c0.17-0.11,0.3-0.17,0.23-0.25c-0.08-0.08-0.2,0.16-0.55,0.11c-0.13-0.02-0.63,0.12-0.66,0.13
			c-0.71-0.16-0.74-0.4-1.69-0.36C21.28,15.07,21.3,15.75,21.84,15.74z"/>
		<polygon points="23.53,15.14 24.12,15.12 24.17,16.86 23.55,16.88 		"/>
		<path d="M15.29,11.39c1.21-0.03,3.97,2.11,4.76,2.55c0.79,0.44,3.97,0.95,3.97,0.95s-0.21,2.2-0.45,2.29
			c-0.25,0.09-3.78-1.06-4.48-1.14c-0.71-0.07-4.83-2.24-4.89-3.44C14.14,11.41,15.29,11.39,15.29,11.39z"/>
	</g>
	<g class="st1">
		<path d="M26.93,14.17c-0.11-0.65-0.57-0.49-1.43-0.36c0,0-2.23,0.11-2.56-0.04c0,0-2.33-1.02-4.31-1.17c0.02,0.46,0,0.55,0,0.55
			s2.94,1.67,4.11,1.78c1.31,0.27,1.77,0.19,3.08,0.24C27.07,15.21,26.93,14.17,26.93,14.17z"/>
		<path d="M18.69,12.62c-0.37-0.03-1.05-0.03-1.32,0.04c-0.43,0.06-0.36,0.03-0.46,0.06c-0.22,0.06-0.66,0.09-0.58,0.21
			c0.03,0.05,0.34,0.04,0.57,0.02l0.04,0.01c-0.15,0.15-0.3,0.38-0.34,0.46c-0.05,0.09,0.39-0.18,0.7-0.33
			c0.01,0.01,0.02,0.01,0.03,0.02c-0.23,0.12-0.51,0.32-0.46,0.35c0.05,0.04,0.49-0.13,0.74-0.23c0.01,0.01,0.02,0.01,0.04,0.02
			c-0.19,0.12-0.51,0.35-0.47,0.38c0.06,0.04,0.5-0.19,0.77-0.28c0.23,0.07,0.47,0.1,0.61,0c0.35-0.24,0.37-0.26,0.37-0.26
			L18.69,12.62z"/>
	</g>
</g>
<g class="st0">
	<g class="st1">
		<g>
			<path d="M14.88,9.3c0,0,1.21,0.3,1.38,0.43c0.17,0.13,0.33,2.25,0.05,2.67c-0.28,0.43-0.49,0.72-0.76,1.65
				c-0.28,0.92-0.3,1.1-0.14,1.38c0.15,0.28,1.13,1.7,1.26,1.97l-5.34,2.45c0,0,0.25-2.47,0.29-2.67c0.04-0.2-0.27-1.1-0.42-1.98
				c-0.12-0.69,0.02-1.54-0.01-1.92c-0.03-0.39-0.63-1.21-0.08-2.07c0.55-0.86,0.92-1.8,0.92-1.8s1.14-0.23,1.48-0.24
				C13.85,9.15,14.88,9.3,14.88,9.3z"/>
		</g>
		<g>
			<path d="M16.26,9.73c0,0,0.58,0.38,0.88,0.93c0.3,0.55,1.27,2.35,1.39,2.41c0.12,0.06,0.83-0.69,1.36-0.97
				c0.53-0.28,1.66-1.05,1.66-1.05l0.05,0.69c0,0-2.44,2.79-2.91,2.93c-0.48,0.14-0.97-0.51-1.09-0.73
				c-0.11-0.22-0.96-1.79-1.21-1.73C16.13,12.28,15.93,9.75,16.26,9.73z"/>
		</g>
		<g>
			<path d="M12.28,9.36c0,0-0.87-0.16-2.07,0.16c-1.2,0.31-2.25,0.15-2.64,0.08C7.18,9.51,3.5,9.54,3.43,9.7
				c-0.07,0.16-0.01,0.53,0.09,0.56c0.1,0.03,3.27,0.42,3.8,0.43c0.52,0.01,2.86,0.07,3.55,0c0.69-0.07,0.93,0.13,0.93,0.13
				L12.28,9.36z"/>
		</g>
		<g>
			<path d="M11.28,19.67c0,0,0.1,1.19,0.58,2.01c0.48,0.82,3.01,3.47,3.25,3.77c0.25,0.3,0.86,1.08,0.92,1.29
				c0.07,0.22,0.62,1.56,0.82,1.83c0.2,0.27,2.44,3.55,2.67,4.15c0.23,0.6,0.47-0.04,0.46-0.29c-0.01-0.24-1.16-4-1.46-4.75
				c-0.3-0.76-0.74-1.4-1.01-2.11c-0.27-0.71-1.73-3.49-1.9-3.84c-0.4-0.84-1.07-3.09-1.76-3.36C13.18,18.1,11.4,18.46,11.28,19.67z
				"/>
		</g>
		<g>
			<path d="M16.66,17.4c0,0,0.97,1.88,0.96,3.35c-0.01,1.47-0.89,5.23-0.96,5.3c-0.07,0.07-0.93,2.18-1.31,2.8
				c-0.39,0.61-2.67,4.34-2.67,4.34s-0.73-0.13-0.69-0.51c0.04-0.39,1.14-2.16,1.66-4.21c0.51-2.06,1.52-3.37,1.44-3.81
				C15.02,24.21,10.89,16.49,16.66,17.4z"/>
		</g>
		<g>
			<path d="M19.87,31.97c0,0,0.39,0.83,0.55,1c0.16,0.17,0.89,0.89,1.07,1.7c0.18,0.81,0.31,0.97-0.13,1.2
				c-0.45,0.23-1.01-0.93-1.24-1.22c-0.23-0.29-0.41-0.84-0.49-1.16c-0.08-0.32-0.32-1.2-0.34-1.22
				C19.27,32.24,19.87,31.97,19.87,31.97z"/>
		</g>
		<g>
			<path d="M12.68,33.19c0,0-0.02,0.43,0.08,0.67c0.1,0.24,0.32,1.29,0.62,1.44c0.3,0.14,0.85,0.15,0.85,0.25
				c0,0.22-0.17,0.34-0.8,0.35c-0.62,0.01-1.22-0.79-1.64-1.35c-0.42-0.56-0.84-0.97-0.49-1.35c0.34-0.38,0.71-0.66,0.77-0.74
				C12.12,32.38,12.68,33.19,12.68,33.19z"/>
		</g>
		<g>
			<path d="M21.54,11.06c0,0,0.12-0.14,1.05,0.02c0.16,0.03,1.1,0.15,1.28,0.13c0.18-0.02,1.09-0.05,1.02,0.09
				c-0.07,0.13-1.3,0.25-1.48,0.31c-0.17,0.06-0.55,0.04-0.52,0.17c0.04,0.13,0.29,0.39,0.33,0.55c0.05,0.16,0.14,0.32,0.09,0.36
				c-0.05,0.04-0.5-0.39-0.64-0.49c-0.14-0.1-0.59-0.3-0.7-0.41c-0.11-0.1-0.27-0.05-0.53,0.14C21.27,12.05,21.54,11.06,21.54,11.06
				z"/>
		</g>
		<g>
			<path d="M3.43,9.7c0,0-1.14,0.53-1.47,1.03c-0.32,0.5-0.44,1.49-0.47,1.65c-0.01,0.07,0.24-0.12,0.46-0.72
				c0.31-0.84,0.89-0.53,1.21-0.74c0.32-0.21,0.65-0.69,0.65-0.69L3.43,9.7z"/>
		</g>
		<g>
			<path d="M3,10.49c0,0-0.65,1.09-0.65,1.14c-0.01,0.18,0.3-0.04,0.61-0.4C3.27,10.87,3.73,10.26,3,10.49z"/>
		</g>
		<g>
			<path d="M14.7,9.21c-0.02,0.21-0.04,0.49-0.02,0.66c0,0-1.02,0.3-1.39-0.24c0,0,0.38-0.95,0.05-1.68C13,7.21,14.6,8.29,14.73,8.9
				C14.73,8.9,14.71,9.03,14.7,9.21z"/>
		</g>
		<g>
			<path d="M14.47,4.89c0.44,0.2,1.41,0.43,1.22,2.23c-0.19,1.79-1.13,2.07-1.71,1.63c-0.57-0.43-1.12-1.59-1.27-2.65
				C12.56,5.04,13.88,4.63,14.47,4.89z"/>
		</g>
		<g>
			<path d="M15.71,6.52c0,0-1.48-0.06-1.88,0.18c-0.39,0.24-0.24,0.36-0.55,0.41c-0.3,0.06-0.16,0.42-0.16,0.42s-1.64-2.5,0.41-2.98
				C15.6,4.09,15.73,6.02,15.71,6.52z"/>
		</g>
		<g>
			<path d="M14.4,4.26c0,0.6-0.49,1.09-1.09,1.09c-0.6,0-1.09-0.49-1.09-1.09c0-0.6,0.49-1.09,1.09-1.09
				C13.91,3.16,14.4,3.65,14.4,4.26z"/>
		</g>
		<g>
			<path d="M13.41,6.53c-0.05-0.16-0.4-0.12-0.37,0.19c0.03,0.31,0.4,0.82,0.51,0.49C13.66,6.88,13.41,6.53,13.41,6.53z"/>
		</g>
		<g>
			<path d="M16.21,12.57c0,0-0.15,0.03-0.19-0.13c-0.04-0.16-0.11-0.91-0.24-1.02c-0.13-0.11-1.36-0.03-2.19,1
				c-0.24,0.3-0.43-0.05-0.5-0.1c-0.07-0.05-0.96-1.44-1.55-1.41c-0.12,0.01-0.61,0.41-0.67,0.93c-0.05,0.51,0.25,1.43,0.31,1.45
				c0.06,0.02,0.24,0.51,1.92,0.05c0,0,0.25-0.07,0.36,0.02c0.11,0.09,0.72,0.59,2.04,0.26c0,0,0.13-0.04,0.18,0.02L16.21,12.57z"/>
		</g>
		<g>
			<path d="M16.72,23.96c0-0.01-0.37-0.74-0.58-1.13c-0.2-0.4-1.23-2.75-1.24-2.77l0.07-0.03c0.01,0.02,1.03,2.37,1.24,2.77
				c0.2,0.4,0.57,1.13,0.58,1.13L16.72,23.96z"/>
		</g>
		<g>
			<path d="M16.01,26.75c-0.05-0.14-0.52-0.77-0.76-1.09l0.06-0.04c0.03,0.04,0.71,0.93,0.77,1.11L16.01,26.75z"/>
		</g>
		<g>
			<path d="M14.27,4.53c0,0-0.74-0.09-1.37,0.52C12.9,5.05,13.31,4.14,14.27,4.53z"/>
		</g>
		<path d="M16.17,16.61c0,0,1.32,1.87,1.56,3.6c0.23,1.73,2.9,3.99,4.3,3.75c0,0-4.44,4.23-8.27,3.16c0,0,1.47-0.81-0.78-3.47
			c-1.06-1.25-2.22-3.61-1.52-5.18C12.16,16.89,16.17,16.61,16.17,16.61z"/>
		<path d="M11.18,13.28c0,0-0.09,0.83-0.01,1.76c0.08,0.93,0.45,1.61,0.34,2.41c-0.11,0.8-0.31,1.92-0.22,2.62
			c0.08,0.7,4.89-3.46,4.89-3.46s-4.28-1.16-0.49-2.98C15.69,13.63,14.35,12.68,11.18,13.28z"/>
		<path d="M14.73,8.9c0,0-0.02,0.13-0.03,0.31h0c-0.25,0.09-0.77-0.08-1.16-0.95C13.57,8.31,14.11,9.12,14.73,8.9z"/>
	</g>
	<g class="st1">
		<path d="M36.46,33.93c0,0-0.11-0.45-0.16-0.56c-0.04-0.12,0.99-0.43,0.99-0.43s0.23,0.61,0.39,0.71
			C37.84,33.75,37.04,33.89,36.46,33.93z"/>
		<path d="M37.41,32.65c-0.56,0.42-1.43,0.84-1.43,0.84c-0.12-0.45-1.72-4.02-2.1-4.52c-0.39-0.51-0.48-1.13-0.55-1.78
			c-0.04-0.38-0.48-1.56-0.84-2.45c-0.08-0.2-0.15-0.38-0.22-0.54c-0.14-0.35-0.24-0.58-0.24-0.58l3.1-3.4c0,0,0.12,3.79,0.01,4.66
			c-0.1,0.88,0,1.1,0.13,2.26c0.13,1.16,0.77,1.96,1.08,3.07C36.69,31.31,37.41,32.65,37.41,32.65z"/>
		<path d="M36.28,33.98c0,0,0.27,0.5,0.18,0.71c-0.09,0.2-0.55,0.74-0.79,0.88c-0.25,0.14-1.11,0.4-1.11,0.59
			c0,0.43-0.08,0.69,0.68,0.68c0.76-0.01,1.42-0.05,1.9-0.66c0.48-0.61,1.55-0.97,1.34-1.57c-0.13-0.37-0.56-0.85-0.67-0.99
			c-0.11-0.14-0.6,0.24-0.9,0.25C36.61,33.87,36.22,33.84,36.28,33.98z"/>
		<polygon points="37.29,32.74 37.41,33.18 36.38,33.62 36.2,33.36 		"/>
		<path d="M35.12,6c0,0-2.26-0.51-2.28,1.39c-0.01,1.9,0.3,2.64,1.19,2.75c0.88,0.11,1.5-1.34,1.76-2.1
			C36.05,7.29,36.05,6.18,35.12,6z"/>
		<path d="M33.75,11.04c0,0,0.02-0.25,0.02-0.55c0-0.13,0-0.27,0-0.41c-0.01-0.2-0.03-0.39-0.06-0.51
			c-0.11-0.38,1.71-0.64,1.71-0.64s-0.08,0.46,0.16,1.34C35.78,10.99,33.75,11.04,33.75,11.04z"/>
		<polygon points="23.1,33.67 23.58,33.25 24.33,33.86 23.86,34.66 		"/>
		<path d="M31.5,19.09c0,0-0.36,0.7-0.95,1.78c-0.59,1.08-1.56,2.93-1.8,3.4c-0.24,0.48-0.55,0.99-0.91,1.51
			c-0.36,0.52-0.59,1.9-0.77,2.06c-0.18,0.16-3.32,4.9-3.66,5.19c0,0,0.38,0.48,1.15,0.92c0,0,0.82-1.05,1.72-1.93
			c0.89-0.88,2.6-2.84,2.87-3.73c0.27-0.89,2.61-3.83,3.46-4.35c0.85-0.52,3.46-2.81,2.82-5.11L31.5,19.09z"/>
		<path d="M23.11,33.5c0,0-0.73,0.47-1.16,0.39c-0.42-0.08-2.1-0.79-2.12-0.39c-0.03,0.69,0.4,0.98,0.83,1.28
			c0.43,0.3,1.2,0.7,1.62,0.95c1,0.59,1.2,0.22,1.43-0.26c0.23-0.48,0.27-0.75,0.31-0.85C24.06,34.52,23.59,34.27,23.11,33.5z"/>
		<path d="M35.74,10.54c0,0,1.16,3.42,1.28,3.87c0.12,0.45,0.26,1.06-0.48,1.43c-0.74,0.37-3.09,1.03-3.14,1.11
			c-0.05,0.08-0.12-1.02-0.12-1.02s0.95-0.46,1.44-0.72c0.49-0.25,0.85-0.39,0.87-0.71c0.02-0.31-0.93-2-0.93-2
			S35.16,10.71,35.74,10.54z"/>
		<path d="M33.06,11.57c0,0-0.5,0.97-0.57,1.62c-0.07,0.65-0.24,0.82-0.3,2.35c-0.06,1.53-0.62,3.31-0.7,3.55
			c0,0,1.93,0.19,3.92-0.25c0,0,0.06-1.96,0.5-3.82c0.45-1.86,0.65-2.09,0.52-2.87c-0.13-0.77-0.94-2.21-0.94-2.21
			S34.22,12.01,33.06,11.57z"/>
		<path d="M32.62,12.17c0.33-0.65,0.95-1.08,0.95-1.08c1.14-0.69,1.93-1.14,1.93-1.14s0.81,1.44,0.94,2.21
			c0.13,0.77-0.07,1.01-0.52,2.87c-0.45,1.86-0.12,5.18-0.12,5.18c-1.99,0.45-5.13-2.67-5.13-2.67c0.07-0.24,0.95-0.41,1.29-2.03
			c0.22-1.05,0.18-1.47,0.26-2.13C32.21,13.37,32.46,12.48,32.62,12.17z"/>
		<path d="M34.45,10.92c0,0-0.97,0.23-1.7,0.86c-0.73,0.64-1.35,0.78-2.06,1c-0.71,0.21-1.17,0.45-1.27,0.43
			c-0.43-0.11-1.11-0.26-1.9-0.6c-0.59-0.25-1.58-0.78-1.58-0.78l-0.45,0.55c0,0,3.07,2.09,3.42,2.25c0.41,0.19,2.11-0.34,2.36-0.46
			c0.26-0.12,1.87-0.59,2.23-0.78c0.36-0.19,2.14-0.59,2.22-1.58C35.8,10.82,35.33,10.81,34.45,10.92z"/>
		<path d="M32.85,7.23c0,0-0.37-1.11,0.3-1.57C33.83,5.2,34.83,5.85,35.48,6c0,0,0.63,0.12,0.54,1c-0.09,0.88-0.61,1.99-0.61,1.99
			s-0.07-1.09-0.29-1.08c-0.22,0.01-0.62,0.18-0.79,0.14c0,0,0.12-0.3,0.1-0.67C34.43,7.38,34.53,6.99,32.85,7.23z"/>
		<path d="M34.78,7.51c0.01-0.12,0.35-0.32,0.5-0.19s0.23,0.61-0.2,1.09C34.66,8.88,34.78,7.51,34.78,7.51z"/>
		<path d="M23.55,33.19l-0.2,0.26l0.83,0.68l0.26-0.24C24.43,33.88,23.74,33.4,23.55,33.19z"/>
		<path d="M34.73,21.82c0,0-0.81,1.86-2.23,2.91c-0.08-0.2-0.15-0.38-0.22-0.54C32.28,24.19,33.97,22.94,34.73,21.82z"/>
		<path d="M34.69,10.4c-0.51,0.05-1.07,0.85-2.4,1.4l1.26,1.8c0,0,1.73-0.57,2.24-1.49C36.15,11.46,35.43,10.34,34.69,10.4z"/>
		<path d="M35.18,9.36c-0.02,0.07-0.38,1.22-1.41,1.13c0-0.13,0-0.27,0-0.41C33.77,10.09,34.54,10.44,35.18,9.36z"/>
		<g>
			<path d="M25.78,12.39c0,0,0.37-0.08,0.32-0.23c-0.06-0.15-0.15-0.34-0.15-0.34L25.78,12.39z"/>
			<path d="M23.21,11.46l1.48,0.49c-0.12-0.11-0.4-0.21-0.38-0.13c0.03,0.11,0.51,0.37,0.69,0.42c0.16,0.05,0.41,0.13,0.58,0.14
				l0.28,0.02l0.09-0.59c0,0-0.95-0.53-1.17-0.64c-0.36-0.17-1.49,0.05-1.54,0.11C23.15,11.4,23.21,11.46,23.21,11.46z"/>
		</g>
	</g>
</g>
</svg>
