<?xml version="1.0" encoding="utf-8"?>
<!-- Generator: Adobe Illustrator 23.1.1, SVG Export Plug-In . SVG Version: 6.00 Build 0)  -->
<svg version="1.1" id="Layer_1" xmlns="http://www.w3.org/2000/svg" xmlns:xlink="http://www.w3.org/1999/xlink" x="0px" y="0px"
	 viewBox="0 0 40 40" style="enable-background:new 0 0 40 40;" xml:space="preserve">
<style type="text/css">
	.st0{display:none;}
	.st1{display:inline;}
	.st2{display:inline;fill:#FFFFFF;stroke:#000000;stroke-miterlimit:10;}
	.st3{display:inline;fill:none;stroke:#000000;stroke-width:0.5;stroke-linecap:round;stroke-miterlimit:10;}
	.st4{display:inline;fill:none;stroke:#000000;stroke-width:0.5;stroke-miterlimit:10;}
	.st5{display:inline;fill:none;stroke:#000000;stroke-width:2;stroke-linecap:round;stroke-linejoin:round;stroke-miterlimit:10;}
	.st6{display:inline;fill:#FFFFFF;}
	.st7{display:inline;stroke:#000000;stroke-miterlimit:10;}
</style>
<g id="Banquet">
	<circle cx="20" cy="20" r="8.71"/>
	<circle cx="20" cy="5.64" r="4.14"/>
	<circle cx="9.84" cy="9.84" r="4.14"/>
	<circle cx="5.64" cy="20" r="4.14"/>
	<circle cx="9.84" cy="30.16" r="4.14"/>
	<circle cx="20" cy="34.36" r="4.14"/>
	<circle cx="30.16" cy="30.16" r="4.14"/>
	<circle cx="34.36" cy="20" r="4.14"/>
	<circle cx="30.16" cy="9.84" r="4.14"/>
</g>
<g id="Theatre" class="st0">
	<circle class="st1" cx="4.78" cy="13.05" r="3.28"/>
	<circle class="st1" cx="12.39" cy="13.19" r="3.28"/>
	<circle class="st1" cx="20" cy="13.16" r="3.28"/>
	<circle class="st1" cx="27.61" cy="13.27" r="3.28"/>
	<circle class="st1" cx="8.53" cy="19.93" r="3.28"/>
	<circle class="st1" cx="16.14" cy="20.08" r="3.28"/>
	<circle class="st1" cx="23.75" cy="20.04" r="3.28"/>
	<circle class="st1" cx="31.36" cy="20.15" r="3.28"/>
	<circle class="st1" cx="35.22" cy="13.27" r="3.28"/>
	<circle class="st1" cx="4.78" cy="26.73" r="3.28"/>
	<circle class="st1" cx="12.39" cy="26.87" r="3.28"/>
	<circle class="st1" cx="20" cy="26.83" r="3.28"/>
	<circle class="st1" cx="27.61" cy="26.94" r="3.28"/>
	<circle class="st1" cx="35.22" cy="26.95" r="3.28"/>
</g>
<g id="Classroom" class="st0">
	<g class="st1">
		<circle cx="8.83" cy="4.81" r="3.31"/>
		<circle cx="20" cy="4.81" r="3.31"/>
		<circle cx="31.17" cy="4.81" r="3.31"/>
	</g>
	<g class="st1">
		<circle cx="8.83" cy="20" r="3.31"/>
		<circle cx="20" cy="20" r="3.31"/>
		<circle cx="31.17" cy="20" r="3.31"/>
	</g>
	<g class="st1">
		<circle cx="8.83" cy="35.19" r="3.31"/>
		<circle cx="20" cy="35.19" r="3.31"/>
		<circle cx="31.17" cy="35.19" r="3.31"/>
	</g>
	<line class="st2" x1="4.11" y1="12.41" x2="35.89" y2="12.41"/>
	<line class="st2" x1="4.11" y1="27.59" x2="35.89" y2="27.59"/>
</g>
<g id="Boardroom" class="st0">
	<circle class="st1" cx="20" cy="5.37" r="3.87"/>
	<g class="st1">
		<circle cx="33.73" cy="15.68" r="3.87"/>
		<circle cx="33.73" cy="24.88" r="3.87"/>
		<circle cx="33.73" cy="34.08" r="3.87"/>
	</g>
	<g class="st1">
		<circle cx="6.27" cy="15.26" r="3.87"/>
		<circle cx="6.27" cy="24.55" r="3.87"/>
		<circle cx="6.27" cy="33.83" r="3.87"/>
	</g>
	<path class="st1" d="M27.56,38.5H12.44c-0.67,0-1.21-0.54-1.21-1.21V11.55c0-0.67,0.54-1.21,1.21-1.21h15.12
		c0.67,0,1.21,0.54,1.21,1.21v25.74C28.77,37.96,28.23,38.5,27.56,38.5z"/>
</g>
<g id="Reception" class="st0">
	<polyline class="st3" points="12.39,38.5 17.74,38.5 20,37.01 20,17.18 8.45,1.5 	"/>
	<polyline class="st3" points="31.55,1.5 20,17.18 20,37.01 22.26,38.5 27.61,38.5 	"/>
	<line class="st4" x1="27.61" y1="38.5" x2="12.39" y2="38.5"/>
	<polygon class="st1" points="9,2 31,2 20,17.15 	"/>
	<g class="st1">
		<polygon points="18.88,38.13 20,37.42 21.11,38.13 		"/>
		<path d="M20,37.71l0.27,0.17h-0.54L20,37.71 M20,37.12l-0.27,0.17l-0.27,0.17l-1.44,0.92h1.71h0.54h1.7l-1.43-0.92l-0.27-0.17
			L20,37.12L20,37.12z"/>
	</g>
</g>
<g id="u-shape" class="st0">
	<polyline class="st5" points="10.43,3.7 10.43,27.5 29.53,27.5 29.53,3.7 	"/>
	<g class="st1">
		<circle cx="4.37" cy="7.25" r="2.87"/>
		<circle cx="4.37" cy="14.13" r="2.87"/>
		<circle cx="4.37" cy="21.01" r="2.87"/>
	</g>
	<g class="st1">
		<circle cx="35.63" cy="7.25" r="2.87"/>
		<circle cx="35.63" cy="14.13" r="2.87"/>
		<circle cx="35.63" cy="21.01" r="2.87"/>
	</g>
	<g class="st1">
		<circle cx="13.1" cy="33.43" r="2.87"/>
		<circle cx="19.98" cy="33.43" r="2.87"/>
		<circle cx="26.86" cy="33.43" r="2.87"/>
	</g>
</g>
<g id="Hollow" class="st0">
	<rect x="11.08" y="9" class="st5" width="17.65" height="22"/>
	<g class="st1">
		<circle cx="5.5" cy="13.64" r="2.65"/>
		<circle cx="5.61" cy="19.79" r="2.65"/>
		<circle cx="5.61" cy="26.36" r="2.65"/>
	</g>
	<g class="st1">
		<circle cx="34.39" cy="13.64" r="2.65"/>
		<circle cx="34.5" cy="19.79" r="2.65"/>
		<circle cx="34.5" cy="26.36" r="2.65"/>
	</g>
	<g class="st1">
		<circle cx="13.73" cy="35.85" r="2.65"/>
		<circle cx="19.88" cy="35.75" r="2.65"/>
		<circle cx="26.44" cy="35.75" r="2.65"/>
	</g>
	<g class="st1">
		<circle cx="13.73" cy="4.25" r="2.65"/>
		<circle cx="19.88" cy="4.15" r="2.65"/>
		<circle cx="26.44" cy="4.15" r="2.65"/>
	</g>
</g>
<g id="Cabaret" class="st0">
	<circle class="st1" cx="18.93" cy="5.23" r="3.73"/>
	<circle class="st1" cx="28.35" cy="9.73" r="3.73"/>
	<circle class="st1" cx="29.87" cy="20.15" r="3.73"/>
	<circle class="st1" cx="28.35" cy="30.4" r="3.73"/>
	<circle class="st1" cx="18.93" cy="34.77" r="3.73"/>
	<path class="st1" d="M21.79,28.45H7.62c-0.68,0-1.22-0.55-1.22-1.22V13.06c0-0.68,0.55-1.22,1.22-1.22h14.17
		c0.68,0,1.22,0.55,1.22,1.22v14.17C23.02,27.91,22.47,28.45,21.79,28.45z"/>
</g>
<g id="buffet" class="st0">
	<g id="Buffet" class="st1">
		<circle cx="19.76" cy="19.92" r="8.71"/>
		<circle cx="19.76" cy="5.56" r="4.14"/>
		<circle cx="9.6" cy="9.76" r="4.14"/>
		<circle cx="5.4" cy="19.92" r="4.14"/>
		<circle cx="9.6" cy="30.08" r="4.14"/>
		<circle cx="19.76" cy="34.29" r="4.14"/>
		<circle cx="29.92" cy="30.08" r="4.14"/>
		<circle cx="34.12" cy="19.92" r="4.14"/>
		<circle cx="29.92" cy="9.76" r="4.14"/>
	</g>
	<rect x="19.74" y="1" class="st6" width="19" height="38"/>
	<line class="st4" x1="19.74" y1="1" x2="19.74" y2="39"/>
	<path class="st7" d="M35.23,38.5h-8.99c-0.56,0-1.01-0.45-1.01-1.01V2.51c0-0.56,0.45-1.01,1.01-1.01h8.99
		c0.56,0,1.01,0.45,1.01,1.01v34.99C36.24,38.05,35.79,38.5,35.23,38.5z"/>
</g>
</svg>
